<svg width="300" height="300" viewBox="0 0 300 300" fill="none" xmlns="http://www.w3.org/2000/svg">
<path d="M202.779 67.7561H105.863C102.831 67.7561 100.373 70.2058 100.373 73.2277V222.556C100.373 225.578 102.831 228.028 105.863 228.028H226.397C229.428 228.028 231.886 225.578 231.886 222.556V96.9926L202.779 67.7561Z" fill="#4E5C93"/>
<path d="M202.779 67.5282L202.825 91.5325C202.825 94.5544 205.283 97.0041 208.314 97.0041H231.886" fill="#E4EBF7"/>
<path d="M158.872 82.3881H62.1775C59.1458 82.3881 56.6882 84.8378 56.6882 87.8597V237.188C56.6882 240.21 59.1458 242.66 62.1775 242.66H182.94C185.972 242.66 188.43 240.21 188.43 237.188V114.358H167.335C164.304 114.358 158.872 111.91 158.872 108.887V82.3881Z" fill="#E4EBF7"/>
<path d="M96.607 96.963H74.8593C72.7804 96.963 71.0952 98.6482 71.0952 100.727V122.381C71.0952 124.46 72.7804 126.145 74.8593 126.145H96.607C98.6858 126.145 100.371 124.46 100.371 122.381V100.727C100.371 98.6482 98.6858 96.963 96.607 96.963Z" fill="#A3B5D6"/>
<path d="M172.194 140.736H72.462C71.7072 140.736 71.0952 141.348 71.0952 142.103V146.664C71.0952 147.419 71.7072 148.031 72.462 148.031H172.194C172.949 148.031 173.561 147.419 173.561 146.664V142.103C173.561 141.348 172.949 140.736 172.194 140.736Z" fill="#A3B5D6"/>
<path d="M172.178 162.635H72.4464C71.6915 162.635 71.0796 163.247 71.0796 164.002V168.564C71.0796 169.319 71.6915 169.931 72.4464 169.931H172.178C172.933 169.931 173.545 169.319 173.545 168.564V164.002C173.545 163.247 172.933 162.635 172.178 162.635Z" fill="#A3B5D6"/>
<path d="M172.387 184.522H72.6549C71.9 184.522 71.2881 185.134 71.2881 185.889V190.45C71.2881 191.205 71.9 191.817 72.6549 191.817H172.387C173.142 191.817 173.754 191.205 173.754 190.45V185.889C173.754 185.134 173.142 184.522 172.387 184.522Z" fill="#A3B5D6"/>
<path d="M158.872 82.3881V108.887C158.872 111.908 161.33 114.358 164.362 114.358H188.429" fill="white"/>
<path fill-rule="evenodd" clip-rule="evenodd" d="M205.81 39.7476C180.759 39.7476 160.451 60.0558 160.451 85.1074C160.451 110.159 180.759 130.467 205.81 130.467C230.862 130.467 251.17 110.159 251.17 85.1074C251.17 60.0558 230.862 39.7476 205.81 39.7476Z" fill="#8BBC06"/>
<path fill-rule="evenodd" clip-rule="evenodd" d="M198.502 100.516L195.638 97.6521L223.389 69.8003C224.337 68.8512 225.876 68.8512 226.825 69.8003L227.971 70.9457C228.919 71.8947 228.919 73.4333 227.971 74.3823L201.938 100.516C200.989 101.465 199.451 101.465 198.502 100.516Z" fill="white"/>
<path fill-rule="evenodd" clip-rule="evenodd" d="M204.797 97.652L201.933 100.516C200.984 101.465 199.445 101.465 198.496 100.516L187.093 89.1124C186.144 88.1635 186.144 86.6249 187.093 85.6759L188.239 84.5305C189.188 83.5815 190.726 83.5815 191.675 84.5305L204.797 97.652Z" fill="white"/>
</svg>
